<svg width="27" height="27" viewBox="0 0 27 27" fill="none" xmlns="http://www.w3.org/2000/svg">
<g id="file_type_vscode 1">
<path id="Vector" d="M24.4772 4.24397L19.6121 1.90172C19.3374 1.76925 19.0282 1.72553 18.7275 1.77663C18.4268 1.82773 18.1495 1.97112 17.9339 2.18691L2.00813 16.7062C1.81491 16.8815 1.69924 17.1264 1.68658 17.387C1.67393 17.6476 1.76531 17.9026 1.94063 18.0958C1.96173 18.1186 1.98282 18.1405 2.0056 18.1608L3.30582 19.342C3.47572 19.4967 3.69442 19.5869 3.92392 19.5971C4.15343 19.6072 4.37925 19.5367 4.56217 19.3977L23.7448 4.85147C23.8897 4.74152 24.0624 4.6742 24.2435 4.65708C24.4246 4.63997 24.6068 4.67373 24.7698 4.75458C24.9327 4.83543 25.0698 4.96016 25.1657 5.11471C25.2616 5.26927 25.3124 5.44752 25.3125 5.62941V5.57288C25.3125 5.2952 25.2341 5.02317 25.0863 4.78807C24.9385 4.55298 24.7274 4.36438 24.4772 4.24397Z" fill="#3EBDFF"/>
<path id="Vector_2" d="M24.4772 22.756L19.6121 25.0991C19.3373 25.2312 19.0282 25.2747 18.7276 25.2236C18.427 25.1725 18.1497 25.0294 17.9339 24.8139L2.00813 10.2938C1.81491 10.1185 1.69924 9.87357 1.68658 9.61296C1.67393 9.35235 1.76531 9.09739 1.94063 8.90415C1.96173 8.88137 1.98282 8.85944 2.0056 8.83919L3.30582 7.65794C3.47589 7.50265 3.69509 7.41202 3.92516 7.40184C4.15523 7.39166 4.38158 7.46259 4.5647 7.60225L23.7448 22.1485C23.8897 22.2584 24.0624 22.3258 24.2435 22.3429C24.4246 22.36 24.6068 22.3262 24.7698 22.2454C24.9327 22.1645 25.0698 22.0398 25.1657 21.8853C25.2616 21.7307 25.3124 21.5524 25.3125 21.3706V21.4313C25.3116 21.7083 25.2328 21.9793 25.0851 22.2136C24.9374 22.4479 24.7267 22.6358 24.4772 22.756Z" fill="#3EBDFF"/>
<path id="Vector_3" d="M19.6121 25.0992C19.3373 25.2313 19.0282 25.2748 18.7276 25.2237C18.427 25.1726 18.1497 25.0294 17.9339 24.814C18.0551 24.9336 18.2088 25.0147 18.3759 25.0473C18.543 25.0799 18.716 25.0624 18.8732 24.9971C19.0305 24.9318 19.1649 24.8215 19.2597 24.6801C19.3545 24.5387 19.4055 24.3725 19.4063 24.2023V2.798C19.4064 2.62696 19.3558 2.45973 19.2608 2.31749C19.1658 2.17525 19.0308 2.0644 18.8727 1.99898C18.7147 1.93356 18.5408 1.91652 18.3731 1.95001C18.2053 1.98351 18.0513 2.06603 17.9305 2.18713C18.1461 1.97141 18.4234 1.82802 18.7241 1.77678C19.0247 1.72554 19.3339 1.76898 19.6088 1.90109L24.473 4.23997C24.724 4.35978 24.936 4.54812 25.0845 4.78326C25.2331 5.0184 25.3121 5.29075 25.3125 5.56888V21.4314C25.3126 21.7093 25.2341 21.9816 25.0862 22.2168C24.9383 22.4521 24.7269 22.6408 24.4764 22.7611L19.6121 25.0992Z" fill="#3EBDFF"/>
</g>
</svg>
